<?xml version="1.0" encoding="UTF-8" standalone="no"?>
<!DOCTYPE svg PUBLIC "-//W3C//DTD SVG 1.1//EN"
 "http://www.w3.org/Graphics/SVG/1.1/DTD/svg11.dtd">
<!-- Generated by graphviz version 2.34.0 (20130907.0228)
 -->
<!-- Title: %3 Pages: 1 -->
<svg width="3032pt" height="1223pt"
 viewBox="0.00 0.00 3032.00 1223.00" xmlns="http://www.w3.org/2000/svg" xmlns:xlink="http://www.w3.org/1999/xlink">
<g id="graph0" class="graph" transform="scale(1 1) rotate(0) translate(4 1219)">
<title>%3</title>
<polygon fill="white" stroke="white" points="-4,4 -4,-1219 3028,-1219 3028,4 -4,4"/>
<g id="clust1" class="cluster"><title>cluster&#45;nid&#45;02</title>
<polygon fill="none" stroke="#cccccc" points="805,-1042 805,-1116 1232,-1116 1232,-1042 805,-1042"/>
</g>
<g id="clust2" class="cluster"><title>cluster&#45;nid&#45;03</title>
<polygon fill="none" stroke="#cccccc" points="805,-900 805,-974 1232,-974 1232,-900 805,-900"/>
</g>
<g id="clust5" class="cluster"><title>cluster&#45;nid&#45;06</title>
<polygon fill="none" stroke="#cccccc" points="13,-940 13,-1014 163,-1014 163,-940 13,-940"/>
</g>
<g id="clust7" class="cluster"><title>cluster&#45;nid&#45;08</title>
<polygon fill="none" stroke="#cccccc" points="2203,-174 2203,-248 2628,-248 2628,-174 2203,-174"/>
</g>
<g id="clust8" class="cluster"><title>cluster&#45;nid&#45;09</title>
<polygon fill="none" stroke="#cccccc" points="2203,-588 2203,-662 2628,-662 2628,-588 2203,-588"/>
</g>
<g id="clust10" class="cluster"><title>cluster&#45;nid&#45;0b</title>
<polygon fill="none" stroke="#cccccc" points="754,-327 754,-665 1248,-665 1248,-327 754,-327"/>
</g>
<g id="clust11" class="cluster"><title>cluster&#45;nid&#45;0c</title>
<polygon fill="none" stroke="#cccccc" points="1448,-978 1448,-1112 1942,-1112 1942,-978 1448,-978"/>
</g>
<g id="clust12" class="cluster"><title>cluster&#45;nid&#45;0d</title>
<polygon fill="none" stroke="#cccccc" points="1448,-836 1448,-970 1942,-970 1942,-836 1448,-836"/>
</g>
<g id="clust14" class="cluster"><title>cluster&#45;nid&#45;0f</title>
<polygon fill="none" stroke="#cccccc" points="2142,-786 2142,-870 2632,-870 2632,-786 2142,-786"/>
</g>
<g id="clust16" class="cluster"><title>cluster&#45;nid&#45;11</title>
<polygon fill="none" stroke="#cccccc" points="426,-1124 426,-1198 895,-1198 895,-1124 426,-1124"/>
</g>
<g id="clust18" class="cluster"><title>cluster&#45;nid&#45;12&#45;out</title>
<polygon fill="none" stroke="#cccccc" points="8,-1115 8,-1207 168,-1207 168,-1115 8,-1115"/>
</g>
<g id="clust20" class="cluster"><title>cluster&#45;nid&#45;14&#45;in</title>
<polygon fill="none" stroke="#cccccc" points="2147,-1078 2147,-1170 2329,-1170 2329,-1078 2147,-1078"/>
</g>
<g id="clust24" class="cluster"><title>cluster&#45;nid&#45;17&#45;in</title>
<polygon fill="none" stroke="#cccccc" points="2832,-782 2832,-874 3016,-874 3016,-782 2832,-782"/>
</g>
<g id="clust27" class="cluster"><title>cluster&#45;nid&#45;18&#45;out</title>
<polygon fill="none" stroke="#cccccc" points="371,-185 371,-277 551,-277 551,-185 371,-185"/>
</g>
<g id="clust29" class="cluster"><title>cluster&#45;nid&#45;19&#45;out</title>
<polygon fill="none" stroke="#cccccc" points="371,-285 371,-377 551,-377 551,-285 371,-285"/>
</g>
<g id="clust31" class="cluster"><title>cluster&#45;nid&#45;1a&#45;out</title>
<polygon fill="none" stroke="#cccccc" points="371,-727 371,-819 551,-819 551,-727 371,-727"/>
</g>
<g id="clust32" class="cluster"><title>cluster&#45;nid&#45;1b&#45;in</title>
<polygon fill="none" stroke="#cccccc" points="2148,-978 2148,-1070 2618,-1070 2618,-978 2148,-978"/>
</g>
<g id="clust33" class="cluster"><title>cluster&#45;nid&#45;1b&#45;out</title>
<polygon fill="none" stroke="#cccccc" points="53,-627 53,-719 551,-719 551,-627 53,-627"/>
</g>
<g id="clust36" class="cluster"><title>cluster&#45;nid&#45;1d&#45;out</title>
<polygon fill="none" stroke="#cccccc" points="368,-85 368,-177 554,-177 554,-85 368,-85"/>
</g>
<g id="clust37" class="cluster"><title>cluster&#45;nid&#45;1e&#45;in</title>
<polygon fill="none" stroke="#cccccc" points="371,-931 371,-1023 551,-1023 551,-931 371,-931"/>
</g>
<g id="clust41" class="cluster"><title>cluster&#45;nid&#45;21&#45;in</title>
<polygon fill="none" stroke="#cccccc" points="2150,-878 2150,-970 2326,-970 2326,-878 2150,-878"/>
</g>
<g id="clust43" class="cluster"><title>cluster&#45;nid&#45;22</title>
<polygon fill="none" stroke="#cccccc" points="1448,-422 1448,-828 1942,-828 1942,-422 1448,-422"/>
</g>
<g id="clust44" class="cluster"><title>cluster&#45;nid&#45;23</title>
<polygon fill="none" stroke="#cccccc" points="1448,-8 1448,-414 1942,-414 1942,-8 1448,-8"/>
</g>
<!-- nid&#45;02 -->
<g id="node1" class="node"><title>nid&#45;02</title>
<ellipse fill="none" stroke="blue" cx="850" cy="-1079" rx="36.7079" ry="29.3315"/>
<text text-anchor="middle" x="850" y="-1081.8" font-family="Times,serif" font-size="14.00">2</text>
<text text-anchor="middle" x="850" y="-1065" font-family="Times,serif" font-size="14.00">Stereo</text>
</g>
<!-- nid&#45;02&#45;ampout -->
<g id="node2" class="node"><title>nid&#45;02&#45;ampout</title>
<polygon fill="none" stroke="#0000ff" points="1224,-1079 1183.5,-1097 1183.5,-1061 1224,-1079"/>
</g>
<!-- nid&#45;02&#45;&gt;nid&#45;02&#45;ampout -->
<g id="edge1" class="edge"><title>nid&#45;02&#45;&gt;nid&#45;02&#45;ampout</title>
<path fill="none" stroke="#0000ff" d="M886.622,-1079C959.525,-1079 1123.46,-1079 1177.98,-1079"/>
<polygon fill="#0000ff" stroke="#0000ff" points="1178.21,-1080.75 1183.21,-1079 1178.21,-1077.25 1178.21,-1080.75"/>
</g>
<!-- nid&#45;0c&#45;ampin&#45;2 -->
<g id="node24" class="node"><title>nid&#45;0c&#45;ampin&#45;2</title>
<polygon fill="none" stroke="#0000ff" points="1632.1,-1079 1499.95,-1103.6 1499.95,-1054.4 1632.1,-1079"/>
<text text-anchor="middle" x="1544" y="-1073.4" font-family="Times,serif" font-size="14.00">0 (2)</text>
</g>
<!-- nid&#45;02&#45;ampout&#45;&gt;nid&#45;0c&#45;ampin&#45;2 -->
<g id="edge19" class="edge"><title>nid&#45;02&#45;ampout&#45;&gt;nid&#45;0c&#45;ampin&#45;2</title>
<path fill="none" stroke="#333333" d="M1224.21,-1079C1280.61,-1079 1414.41,-1079 1489.5,-1079"/>
<polygon fill="#333333" stroke="#333333" points="1489.7,-1082.5 1499.7,-1079 1489.7,-1075.5 1489.7,-1082.5"/>
</g>
<!-- nid&#45;03 -->
<g id="node3" class="node"><title>nid&#45;03</title>
<ellipse fill="none" stroke="blue" cx="850" cy="-937" rx="36.7079" ry="29.3315"/>
<text text-anchor="middle" x="850" y="-939.8" font-family="Times,serif" font-size="14.00">3</text>
<text text-anchor="middle" x="850" y="-923" font-family="Times,serif" font-size="14.00">Stereo</text>
</g>
<!-- nid&#45;03&#45;ampout -->
<g id="node4" class="node"><title>nid&#45;03&#45;ampout</title>
<polygon fill="none" stroke="#0000ff" points="1224,-937 1183.5,-955 1183.5,-919 1224,-937"/>
</g>
<!-- nid&#45;03&#45;&gt;nid&#45;03&#45;ampout -->
<g id="edge2" class="edge"><title>nid&#45;03&#45;&gt;nid&#45;03&#45;ampout</title>
<path fill="none" stroke="#0000ff" d="M886.622,-937C959.525,-937 1123.46,-937 1177.98,-937"/>
<polygon fill="#0000ff" stroke="#0000ff" points="1178.21,-938.75 1183.21,-937 1178.21,-935.25 1178.21,-938.75"/>
</g>
<!-- nid&#45;0d&#45;ampin&#45;3 -->
<g id="node27" class="node"><title>nid&#45;0d&#45;ampin&#45;3</title>
<polygon fill="none" stroke="#0000ff" points="1632.1,-937 1499.95,-961.602 1499.95,-912.398 1632.1,-937"/>
<text text-anchor="middle" x="1544" y="-931.4" font-family="Times,serif" font-size="14.00">0 (3)</text>
</g>
<!-- nid&#45;03&#45;ampout&#45;&gt;nid&#45;0d&#45;ampin&#45;3 -->
<g id="edge23" class="edge"><title>nid&#45;03&#45;ampout&#45;&gt;nid&#45;0d&#45;ampin&#45;3</title>
<path fill="none" stroke="#333333" d="M1224.21,-937C1280.61,-937 1414.41,-937 1489.5,-937"/>
<polygon fill="#333333" stroke="#333333" points="1489.7,-940.5 1499.7,-937 1489.7,-933.5 1489.7,-940.5"/>
</g>
<!-- nid&#45;06 -->
<g id="node5" class="node"><title>nid&#45;06</title>
<ellipse fill="none" stroke="blue" cx="88" cy="-977" rx="66.6461" ry="29.3315"/>
<text text-anchor="middle" x="88" y="-979.8" font-family="Times,serif" font-size="14.00">6</text>
<text text-anchor="middle" x="88" y="-963" font-family="Times,serif" font-size="14.00">Stereo Digital</text>
</g>
<!-- nid&#45;1e&#45;in -->
<g id="node39" class="node"><title>nid&#45;1e&#45;in</title>
<polygon fill="none" stroke="green" points="543.498,-1014.7 378.502,-1014.7 378.502,-939.3 543.498,-939.3 543.498,-1014.7"/>
<text text-anchor="middle" x="461" y="-996.6" font-family="Times,serif" font-size="14.00">30</text>
<text text-anchor="middle" x="461" y="-979.8" font-family="Times,serif" font-size="14.00">[N/A] Speaker at Ext Rear</text>
<text text-anchor="middle" x="461" y="-963" font-family="Times,serif" font-size="14.00">Stereo Digital</text>
<text text-anchor="middle" x="461" y="-946.2" font-family="Times,serif" font-size="14.00">OUT Detect</text>
</g>
<!-- nid&#45;06&#45;&gt;nid&#45;1e&#45;in -->
<g id="edge35" class="edge"><title>nid&#45;06&#45;&gt;nid&#45;1e&#45;in</title>
<path fill="none" stroke="#333333" d="M154.9,-977C214.317,-977 302.273,-977 368.501,-977"/>
<polygon fill="#333333" stroke="#333333" points="368.522,-980.5 378.522,-977 368.521,-973.5 368.522,-980.5"/>
</g>
<!-- nid&#45;08 -->
<g id="node6" class="node"><title>nid&#45;08</title>
<ellipse fill="none" stroke="red" cx="2583" cy="-211" rx="36.7079" ry="29.3315"/>
<text text-anchor="middle" x="2583" y="-213.8" font-family="Times,serif" font-size="14.00">8</text>
<text text-anchor="middle" x="2583" y="-197" font-family="Times,serif" font-size="14.00">Stereo</text>
</g>
<!-- nid&#45;08&#45;ampin -->
<g id="node7" class="node"><title>nid&#45;08&#45;ampin</title>
<polygon fill="none" stroke="#c8c8c8" points="2265,-211 2224.5,-229 2224.5,-193 2265,-211"/>
</g>
<!-- nid&#45;08&#45;ampin&#45;&gt;nid&#45;08 -->
<g id="edge3" class="edge"><title>nid&#45;08&#45;ampin&#45;&gt;nid&#45;08</title>
<path fill="none" stroke="#c8c8c8" d="M2265.06,-211C2324.38,-211 2469.81,-211 2541.17,-211"/>
<polygon fill="#c8c8c8" stroke="#c8c8c8" points="2541.18,-212.75 2546.18,-211 2541.18,-209.25 2541.18,-212.75"/>
</g>
<!-- nid&#45;23 -->
<g id="node8" class="node"><title>nid&#45;23</title>
<polygon fill="none" stroke="black" points="1933.03,-211 1912.02,-244.933 1869.98,-244.933 1848.97,-211 1869.98,-177.067 1912.02,-177.067 1933.03,-211"/>
<text text-anchor="middle" x="1891" y="-213.8" font-family="Times,serif" font-size="14.00">35</text>
<text text-anchor="middle" x="1891" y="-197" font-family="Times,serif" font-size="14.00">Stereo</text>
</g>
<!-- nid&#45;23&#45;&gt;nid&#45;08&#45;ampin -->
<g id="edge4" class="edge"><title>nid&#45;23&#45;&gt;nid&#45;08&#45;ampin</title>
<path fill="none" stroke="#333333" d="M1933.27,-211C2006.55,-211 2157.03,-211 2214.24,-211"/>
<polygon fill="#333333" stroke="#333333" points="2214.39,-214.5 2224.39,-211 2214.39,-207.5 2214.39,-214.5"/>
</g>
<!-- nid&#45;09 -->
<g id="node9" class="node"><title>nid&#45;09</title>
<ellipse fill="none" stroke="red" cx="2583" cy="-625" rx="36.7079" ry="29.3315"/>
<text text-anchor="middle" x="2583" y="-627.8" font-family="Times,serif" font-size="14.00">9</text>
<text text-anchor="middle" x="2583" y="-611" font-family="Times,serif" font-size="14.00">Stereo</text>
</g>
<!-- nid&#45;09&#45;ampin -->
<g id="node10" class="node"><title>nid&#45;09&#45;ampin</title>
<polygon fill="none" stroke="#c8c8c8" points="2265,-625 2224.5,-643 2224.5,-607 2265,-625"/>
</g>
<!-- nid&#45;09&#45;ampin&#45;&gt;nid&#45;09 -->
<g id="edge5" class="edge"><title>nid&#45;09&#45;ampin&#45;&gt;nid&#45;09</title>
<path fill="none" stroke="#c8c8c8" d="M2265.06,-625C2324.38,-625 2469.81,-625 2541.17,-625"/>
<polygon fill="#c8c8c8" stroke="#c8c8c8" points="2541.18,-626.75 2546.18,-625 2541.18,-623.25 2541.18,-626.75"/>
</g>
<!-- nid&#45;22 -->
<g id="node11" class="node"><title>nid&#45;22</title>
<polygon fill="none" stroke="black" points="1933.03,-625 1912.02,-658.933 1869.98,-658.933 1848.97,-625 1869.98,-591.067 1912.02,-591.067 1933.03,-625"/>
<text text-anchor="middle" x="1891" y="-627.8" font-family="Times,serif" font-size="14.00">34</text>
<text text-anchor="middle" x="1891" y="-611" font-family="Times,serif" font-size="14.00">Stereo</text>
</g>
<!-- nid&#45;22&#45;&gt;nid&#45;09&#45;ampin -->
<g id="edge6" class="edge"><title>nid&#45;22&#45;&gt;nid&#45;09&#45;ampin</title>
<path fill="none" stroke="#333333" d="M1933.27,-625C2006.55,-625 2157.03,-625 2214.24,-625"/>
<polygon fill="#333333" stroke="#333333" points="2214.39,-628.5 2224.39,-625 2214.39,-621.5 2214.39,-628.5"/>
</g>
<!-- nid&#45;0b -->
<g id="node12" class="node"><title>nid&#45;0b</title>
<polygon fill="none" stroke="black" points="1239.03,-530 1218.02,-563.933 1175.98,-563.933 1154.97,-530 1175.98,-496.067 1218.02,-496.067 1239.03,-530"/>
<text text-anchor="middle" x="1197" y="-532.8" font-family="Times,serif" font-size="14.00">11</text>
<text text-anchor="middle" x="1197" y="-516" font-family="Times,serif" font-size="14.00">Stereo</text>
</g>
<!-- nid&#45;0c&#45;ampin&#45;11 -->
<g id="node25" class="node"><title>nid&#45;0c&#45;ampin&#45;11</title>
<polygon fill="none" stroke="#0000ff" points="1632.1,-1011 1499.95,-1035.6 1499.95,-986.398 1632.1,-1011"/>
<text text-anchor="middle" x="1544" y="-1005.4" font-family="Times,serif" font-size="14.00">1 (11)</text>
</g>
<!-- nid&#45;0b&#45;&gt;nid&#45;0c&#45;ampin&#45;11 -->
<g id="edge20" class="edge"><title>nid&#45;0b&#45;&gt;nid&#45;0c&#45;ampin&#45;11</title>
<path fill="none" stroke="#333333" d="M1208.07,-563.475C1234.26,-645.045 1312.03,-856.017 1448,-974 1460.06,-984.467 1475.43,-992.153 1490.26,-997.716"/>
<polygon fill="#333333" stroke="#333333" points="1489.3,-1001.09 1499.9,-1001.07 1491.6,-994.478 1489.3,-1001.09"/>
</g>
<!-- nid&#45;0d&#45;ampin&#45;11 -->
<g id="node28" class="node"><title>nid&#45;0d&#45;ampin&#45;11</title>
<polygon fill="none" stroke="#0000ff" points="1632.1,-869 1499.95,-893.602 1499.95,-844.398 1632.1,-869"/>
<text text-anchor="middle" x="1544" y="-863.4" font-family="Times,serif" font-size="14.00">1 (11)</text>
</g>
<!-- nid&#45;0b&#45;&gt;nid&#45;0d&#45;ampin&#45;11 -->
<g id="edge24" class="edge"><title>nid&#45;0b&#45;&gt;nid&#45;0d&#45;ampin&#45;11</title>
<path fill="none" stroke="#333333" d="M1217.78,-563.803C1255.31,-625.244 1342.6,-755.897 1448,-832 1460.48,-841.008 1475.43,-848.165 1489.75,-853.689"/>
<polygon fill="#333333" stroke="#333333" points="1488.93,-857.114 1499.52,-857.255 1491.33,-850.538 1488.93,-857.114"/>
</g>
<!-- nid&#45;22&#45;ampin&#45;11 -->
<g id="node46" class="node"><title>nid&#45;22&#45;ampin&#45;11</title>
<polygon fill="none" stroke="#c8c8c8" points="1632.1,-659 1499.95,-683.602 1499.95,-634.398 1632.1,-659"/>
<text text-anchor="middle" x="1544" y="-653.4" font-family="Times,serif" font-size="14.00">5 (11)</text>
</g>
<!-- nid&#45;0b&#45;&gt;nid&#45;22&#45;ampin&#45;11 -->
<g id="edge49" class="edge"><title>nid&#45;0b&#45;&gt;nid&#45;22&#45;ampin&#45;11</title>
<path fill="none" stroke="#333333" d="M1231.54,-542.69C1279.49,-560.818 1370.43,-595.128 1448,-624 1461.79,-629.131 1476.71,-634.648 1490.56,-639.75"/>
<polygon fill="#333333" stroke="#333333" points="1489.35,-643.035 1499.94,-643.205 1491.77,-636.466 1489.35,-643.035"/>
</g>
<!-- nid&#45;23&#45;ampin&#45;11 -->
<g id="node52" class="node"><title>nid&#45;23&#45;ampin&#45;11</title>
<polygon fill="none" stroke="#c8c8c8" points="1632.1,-245 1499.95,-269.602 1499.95,-220.398 1632.1,-245"/>
<text text-anchor="middle" x="1544" y="-239.4" font-family="Times,serif" font-size="14.00">5 (11)</text>
</g>
<!-- nid&#45;0b&#45;&gt;nid&#45;23&#45;ampin&#45;11 -->
<g id="edge61" class="edge"><title>nid&#45;0b&#45;&gt;nid&#45;23&#45;ampin&#45;11</title>
<path fill="none" stroke="#333333" d="M1220.56,-499.809C1260.84,-447.849 1350.12,-341.126 1448,-279 1460.74,-270.915 1475.66,-264.422 1489.85,-259.365"/>
<polygon fill="#333333" stroke="#333333" points="1491.17,-262.612 1499.52,-256.091 1488.93,-255.982 1491.17,-262.612"/>
</g>
<!-- nid&#45;0b&#45;ampin&#45;24 -->
<g id="node13" class="node"><title>nid&#45;0b&#45;ampin&#45;24</title>
<polygon fill="none" stroke="#c8c8c8" points="938.099,-428 805.95,-452.602 805.95,-403.398 938.099,-428"/>
<text text-anchor="middle" x="850" y="-422.4" font-family="Times,serif" font-size="14.00">0 (24)</text>
</g>
<!-- nid&#45;0b&#45;ampin&#45;24&#45;&gt;nid&#45;0b -->
<g id="edge7" class="edge"><title>nid&#45;0b&#45;ampin&#45;24&#45;&gt;nid&#45;0b</title>
<path fill="none" stroke="#c8c8c8" d="M884.394,-437.873C948.386,-456.792 1088,-498.071 1156.5,-518.323"/>
<polygon fill="#c8c8c8" stroke="#c8c8c8" points="1156.02,-520.004 1161.31,-519.744 1157.01,-516.648 1156.02,-520.004"/>
</g>
<!-- nid&#45;0b&#45;ampin&#45;25 -->
<g id="node14" class="node"><title>nid&#45;0b&#45;ampin&#45;25</title>
<polygon fill="none" stroke="#c8c8c8" points="938.099,-496 805.95,-520.602 805.95,-471.398 938.099,-496"/>
<text text-anchor="middle" x="850" y="-490.4" font-family="Times,serif" font-size="14.00">1 (25)</text>
</g>
<!-- nid&#45;0b&#45;ampin&#45;25&#45;&gt;nid&#45;0b -->
<g id="edge8" class="edge"><title>nid&#45;0b&#45;ampin&#45;25&#45;&gt;nid&#45;0b</title>
<path fill="none" stroke="#c8c8c8" d="M907.97,-501.614C976.474,-508.366 1089.97,-519.55 1152.07,-525.67"/>
<polygon fill="#c8c8c8" stroke="#c8c8c8" points="1152.03,-527.425 1157.18,-526.174 1152.37,-523.942 1152.03,-527.425"/>
</g>
<!-- nid&#45;0b&#45;ampin&#45;26 -->
<g id="node15" class="node"><title>nid&#45;0b&#45;ampin&#45;26</title>
<polygon fill="none" stroke="#c8c8c8" points="936.93,-632 806.535,-656.602 806.535,-607.398 936.93,-632"/>
<text text-anchor="middle" x="850" y="-626.4" font-family="Times,serif" font-size="14.00">2 (26)</text>
</g>
<!-- nid&#45;0b&#45;ampin&#45;26&#45;&gt;nid&#45;0b -->
<g id="edge9" class="edge"><title>nid&#45;0b&#45;ampin&#45;26&#45;&gt;nid&#45;0b</title>
<path fill="none" stroke="#c8c8c8" d="M884.394,-622.127C948.386,-603.208 1088,-561.929 1156.5,-541.677"/>
<polygon fill="#c8c8c8" stroke="#c8c8c8" points="1157.01,-543.352 1161.31,-540.256 1156.02,-539.996 1157.01,-543.352"/>
</g>
<!-- nid&#45;0b&#45;ampin&#45;27 -->
<g id="node16" class="node"><title>nid&#45;0b&#45;ampin&#45;27</title>
<polygon fill="none" stroke="#c8c8c8" points="938.099,-564 805.95,-588.602 805.95,-539.398 938.099,-564"/>
<text text-anchor="middle" x="850" y="-558.4" font-family="Times,serif" font-size="14.00">3 (27)</text>
</g>
<!-- nid&#45;0b&#45;ampin&#45;27&#45;&gt;nid&#45;0b -->
<g id="edge10" class="edge"><title>nid&#45;0b&#45;ampin&#45;27&#45;&gt;nid&#45;0b</title>
<path fill="none" stroke="#c8c8c8" d="M907.97,-558.386C976.474,-551.634 1089.97,-540.45 1152.07,-534.33"/>
<polygon fill="#c8c8c8" stroke="#c8c8c8" points="1152.37,-536.058 1157.18,-533.826 1152.03,-532.575 1152.37,-536.058"/>
</g>
<!-- nid&#45;0b&#45;ampin&#45;29 -->
<g id="node17" class="node"><title>nid&#45;0b&#45;ampin&#45;29</title>
<polygon fill="none" stroke="#c8c8c8" points="938.099,-360 805.95,-384.602 805.95,-335.398 938.099,-360"/>
<text text-anchor="middle" x="850" y="-354.4" font-family="Times,serif" font-size="14.00">4 (29)</text>
</g>
<!-- nid&#45;0b&#45;ampin&#45;29&#45;&gt;nid&#45;0b -->
<g id="edge11" class="edge"><title>nid&#45;0b&#45;ampin&#45;29&#45;&gt;nid&#45;0b</title>
<path fill="none" stroke="#c8c8c8" d="M880.742,-370.676C897.712,-377.002 919.27,-385.436 938,-394 1019.64,-431.325 1111.93,-482.175 1160.98,-509.918"/>
<polygon fill="#c8c8c8" stroke="#c8c8c8" points="1160.37,-511.587 1165.58,-512.53 1162.1,-508.542 1160.37,-511.587"/>
</g>
<!-- nid&#45;18&#45;out -->
<g id="node18" class="node"><title>nid&#45;18&#45;out</title>
<polygon fill="none" stroke="green" points="543.498,-268.7 378.502,-268.7 378.502,-193.3 543.498,-193.3 543.498,-268.7"/>
<text text-anchor="middle" x="461" y="-250.6" font-family="Times,serif" font-size="14.00">24</text>
<text text-anchor="middle" x="461" y="-233.8" font-family="Times,serif" font-size="14.00">[N/A] Speaker at Ext Rear</text>
<text text-anchor="middle" x="461" y="-217" font-family="Times,serif" font-size="14.00">Stereo</text>
<text text-anchor="middle" x="461" y="-200.2" font-family="Times,serif" font-size="14.00">IN Detect</text>
</g>
<!-- nid&#45;18&#45;out&#45;&gt;nid&#45;0b&#45;ampin&#45;24 -->
<g id="edge12" class="edge"><title>nid&#45;18&#45;out&#45;&gt;nid&#45;0b&#45;ampin&#45;24</title>
<path fill="none" stroke="#333333" d="M530.877,-268.31C538.684,-272.576 546.519,-276.873 554,-281 643.202,-330.214 661.471,-350.369 754,-393 767.49,-399.215 782.424,-405.14 796.38,-410.29"/>
<polygon fill="#333333" stroke="#333333" points="795.262,-413.608 805.856,-413.726 797.648,-407.027 795.262,-413.608"/>
</g>
<!-- nid&#45;22&#45;ampin&#45;24 -->
<g id="node41" class="node"><title>nid&#45;22&#45;ampin&#45;24</title>
<polygon fill="none" stroke="#c8c8c8" points="1632.1,-523 1499.95,-547.602 1499.95,-498.398 1632.1,-523"/>
<text text-anchor="middle" x="1544" y="-517.4" font-family="Times,serif" font-size="14.00">0 (24)</text>
</g>
<!-- nid&#45;18&#45;out&#45;&gt;nid&#45;22&#45;ampin&#45;24 -->
<g id="edge44" class="edge"><title>nid&#45;18&#45;out&#45;&gt;nid&#45;22&#45;ampin&#45;24</title>
<path fill="none" stroke="#333333" d="M543.319,-220.716C691.035,-205.645 1010.13,-189.896 1248,-297 1360.07,-347.464 1343.71,-422.952 1448,-488 1460.84,-496.011 1475.8,-502.594 1489.99,-507.802"/>
<polygon fill="#333333" stroke="#333333" points="1489.06,-511.185 1499.66,-511.188 1491.38,-504.579 1489.06,-511.185"/>
</g>
<!-- nid&#45;23&#45;ampin&#45;24 -->
<g id="node47" class="node"><title>nid&#45;23&#45;ampin&#45;24</title>
<polygon fill="none" stroke="#c8c8c8" points="1632.1,-109 1499.95,-133.602 1499.95,-84.3984 1632.1,-109"/>
<text text-anchor="middle" x="1544" y="-103.4" font-family="Times,serif" font-size="14.00">0 (24)</text>
</g>
<!-- nid&#45;18&#45;out&#45;&gt;nid&#45;23&#45;ampin&#45;24 -->
<g id="edge56" class="edge"><title>nid&#45;18&#45;out&#45;&gt;nid&#45;23&#45;ampin&#45;24</title>
<path fill="none" stroke="#333333" d="M543.251,-221.83C754.114,-198.032 1314.59,-134.778 1489.85,-114.998"/>
<polygon fill="#333333" stroke="#333333" points="1490.32,-118.468 1499.86,-113.868 1489.53,-111.512 1490.32,-118.468"/>
</g>
<!-- nid&#45;19&#45;out -->
<g id="node19" class="node"><title>nid&#45;19&#45;out</title>
<polygon fill="none" stroke="green" points="543.498,-368.7 378.502,-368.7 378.502,-293.3 543.498,-293.3 543.498,-368.7"/>
<text text-anchor="middle" x="461" y="-350.6" font-family="Times,serif" font-size="14.00">25</text>
<text text-anchor="middle" x="461" y="-333.8" font-family="Times,serif" font-size="14.00">[N/A] Speaker at Ext Rear</text>
<text text-anchor="middle" x="461" y="-317" font-family="Times,serif" font-size="14.00">Stereo</text>
<text text-anchor="middle" x="461" y="-300.2" font-family="Times,serif" font-size="14.00">IN Detect</text>
</g>
<!-- nid&#45;19&#45;out&#45;&gt;nid&#45;0b&#45;ampin&#45;25 -->
<g id="edge13" class="edge"><title>nid&#45;19&#45;out&#45;&gt;nid&#45;0b&#45;ampin&#45;25</title>
<path fill="none" stroke="#333333" d="M541.95,-368.302C600.293,-395.102 681.512,-431.548 754,-461 767.628,-466.537 782.498,-472.194 796.342,-477.301"/>
<polygon fill="#333333" stroke="#333333" points="795.14,-480.588 805.734,-480.741 797.547,-474.015 795.14,-480.588"/>
</g>
<!-- nid&#45;22&#45;ampin&#45;25 -->
<g id="node42" class="node"><title>nid&#45;22&#45;ampin&#45;25</title>
<polygon fill="none" stroke="#c8c8c8" points="1632.1,-591 1499.95,-615.602 1499.95,-566.398 1632.1,-591"/>
<text text-anchor="middle" x="1544" y="-585.4" font-family="Times,serif" font-size="14.00">1 (25)</text>
</g>
<!-- nid&#45;19&#45;out&#45;&gt;nid&#45;22&#45;ampin&#45;25 -->
<g id="edge45" class="edge"><title>nid&#45;19&#45;out&#45;&gt;nid&#45;22&#45;ampin&#45;25</title>
<path fill="none" stroke="#333333" d="M543.527,-321.519C718.617,-302.542 1124.7,-266.341 1248,-323 1372.01,-379.983 1335.92,-478.129 1448,-556 1460.55,-564.719 1475.53,-571.553 1489.85,-576.776"/>
<polygon fill="#333333" stroke="#333333" points="1489.02,-580.192 1499.61,-580.138 1491.3,-573.573 1489.02,-580.192"/>
</g>
<!-- nid&#45;23&#45;ampin&#45;25 -->
<g id="node48" class="node"><title>nid&#45;23&#45;ampin&#45;25</title>
<polygon fill="none" stroke="#c8c8c8" points="1632.1,-177 1499.95,-201.602 1499.95,-152.398 1632.1,-177"/>
<text text-anchor="middle" x="1544" y="-171.4" font-family="Times,serif" font-size="14.00">1 (25)</text>
</g>
<!-- nid&#45;19&#45;out&#45;&gt;nid&#45;23&#45;ampin&#45;25 -->
<g id="edge57" class="edge"><title>nid&#45;19&#45;out&#45;&gt;nid&#45;23&#45;ampin&#45;25</title>
<path fill="none" stroke="#333333" d="M543.251,-319.425C754.114,-289.385 1314.59,-209.539 1489.85,-184.571"/>
<polygon fill="#333333" stroke="#333333" points="1490.46,-188.021 1499.86,-183.145 1489.47,-181.091 1490.46,-188.021"/>
</g>
<!-- nid&#45;1a&#45;out -->
<g id="node20" class="node"><title>nid&#45;1a&#45;out</title>
<polygon fill="none" stroke="green" points="543.498,-810.7 378.502,-810.7 378.502,-735.3 543.498,-735.3 543.498,-810.7"/>
<text text-anchor="middle" x="461" y="-792.6" font-family="Times,serif" font-size="14.00">26</text>
<text text-anchor="middle" x="461" y="-775.8" font-family="Times,serif" font-size="14.00">[N/A] Speaker at Ext Rear</text>
<text text-anchor="middle" x="461" y="-759" font-family="Times,serif" font-size="14.00">Stereo</text>
<text text-anchor="middle" x="461" y="-742.2" font-family="Times,serif" font-size="14.00">IN Detect</text>
</g>
<!-- nid&#45;1a&#45;out&#45;&gt;nid&#45;0b&#45;ampin&#45;26 -->
<g id="edge14" class="edge"><title>nid&#45;1a&#45;out&#45;&gt;nid&#45;0b&#45;ampin&#45;26</title>
<path fill="none" stroke="#333333" d="M543.6,-743.27C619.957,-715.45 731.735,-674.724 796.759,-651.034"/>
<polygon fill="#333333" stroke="#333333" points="798.194,-654.236 806.392,-647.524 795.798,-647.659 798.194,-654.236"/>
</g>
<!-- nid&#45;22&#45;ampin&#45;26 -->
<g id="node43" class="node"><title>nid&#45;22&#45;ampin&#45;26</title>
<polygon fill="none" stroke="#c8c8c8" points="1630.93,-795 1500.53,-819.602 1500.53,-770.398 1630.93,-795"/>
<text text-anchor="middle" x="1544" y="-789.4" font-family="Times,serif" font-size="14.00">2 (26)</text>
</g>
<!-- nid&#45;1a&#45;out&#45;&gt;nid&#45;22&#45;ampin&#45;26 -->
<g id="edge46" class="edge"><title>nid&#45;1a&#45;out&#45;&gt;nid&#45;22&#45;ampin&#45;26</title>
<path fill="none" stroke="#333333" d="M543.251,-774.654C754.25,-778.948 1315.31,-790.366 1490.19,-793.925"/>
<polygon fill="#333333" stroke="#333333" points="1490.35,-797.429 1500.42,-794.133 1490.49,-790.431 1490.35,-797.429"/>
</g>
<!-- nid&#45;23&#45;ampin&#45;26 -->
<g id="node49" class="node"><title>nid&#45;23&#45;ampin&#45;26</title>
<polygon fill="none" stroke="#c8c8c8" points="1630.93,-381 1500.53,-405.602 1500.53,-356.398 1630.93,-381"/>
<text text-anchor="middle" x="1544" y="-375.4" font-family="Times,serif" font-size="14.00">2 (26)</text>
</g>
<!-- nid&#45;1a&#45;out&#45;&gt;nid&#45;23&#45;ampin&#45;26 -->
<g id="edge58" class="edge"><title>nid&#45;1a&#45;out&#45;&gt;nid&#45;23&#45;ampin&#45;26</title>
<path fill="none" stroke="#333333" d="M543.277,-772.732C719.302,-770.85 1129.47,-759.062 1248,-691 1378.44,-616.103 1328.71,-509.619 1448,-418 1460.55,-408.36 1475.92,-400.94 1490.62,-395.366"/>
<polygon fill="#333333" stroke="#333333" points="1491.9,-398.625 1500.14,-391.964 1489.54,-392.033 1491.9,-398.625"/>
</g>
<!-- nid&#45;1b&#45;out -->
<g id="node21" class="node"><title>nid&#45;1b&#45;out</title>
<polygon fill="none" stroke="green" points="543.498,-710.7 378.502,-710.7 378.502,-635.3 543.498,-635.3 543.498,-710.7"/>
<text text-anchor="middle" x="461" y="-692.6" font-family="Times,serif" font-size="14.00">27</text>
<text text-anchor="middle" x="461" y="-675.8" font-family="Times,serif" font-size="14.00">[N/A] Speaker at Ext Rear</text>
<text text-anchor="middle" x="461" y="-659" font-family="Times,serif" font-size="14.00">Stereo</text>
<text text-anchor="middle" x="461" y="-642.2" font-family="Times,serif" font-size="14.00">IN OUT HP Detect</text>
</g>
<!-- nid&#45;1b&#45;out&#45;&gt;nid&#45;0b&#45;ampin&#45;27 -->
<g id="edge15" class="edge"><title>nid&#45;1b&#45;out&#45;&gt;nid&#45;0b&#45;ampin&#45;27</title>
<path fill="none" stroke="#333333" d="M543.6,-650.017C619.746,-628.57 731.118,-597.202 796.219,-578.866"/>
<polygon fill="#333333" stroke="#333333" points="797.191,-582.228 805.868,-576.148 795.293,-575.491 797.191,-582.228"/>
</g>
<!-- nid&#45;22&#45;ampin&#45;27 -->
<g id="node44" class="node"><title>nid&#45;22&#45;ampin&#45;27</title>
<polygon fill="none" stroke="#c8c8c8" points="1632.1,-727 1499.95,-751.602 1499.95,-702.398 1632.1,-727"/>
<text text-anchor="middle" x="1544" y="-721.4" font-family="Times,serif" font-size="14.00">3 (27)</text>
</g>
<!-- nid&#45;1b&#45;out&#45;&gt;nid&#45;22&#45;ampin&#45;27 -->
<g id="edge47" class="edge"><title>nid&#45;1b&#45;out&#45;&gt;nid&#45;22&#45;ampin&#45;27</title>
<path fill="none" stroke="#333333" d="M543.411,-681.421C601.934,-687.188 682.758,-694.567 754,-699 1030.43,-716.2 1362.05,-723.692 1489.51,-726.086"/>
<polygon fill="#333333" stroke="#333333" points="1489.71,-729.59 1499.77,-726.275 1489.84,-722.591 1489.71,-729.59"/>
</g>
<!-- nid&#45;23&#45;ampin&#45;27 -->
<g id="node50" class="node"><title>nid&#45;23&#45;ampin&#45;27</title>
<polygon fill="none" stroke="#c8c8c8" points="1632.1,-313 1499.95,-337.602 1499.95,-288.398 1632.1,-313"/>
<text text-anchor="middle" x="1544" y="-307.4" font-family="Times,serif" font-size="14.00">3 (27)</text>
</g>
<!-- nid&#45;1b&#45;out&#45;&gt;nid&#45;23&#45;ampin&#45;27 -->
<g id="edge59" class="edge"><title>nid&#45;1b&#45;out&#45;&gt;nid&#45;23&#45;ampin&#45;27</title>
<path fill="none" stroke="#333333" d="M543.435,-677C732.123,-685.642 1187.78,-702.686 1248,-669 1395.03,-586.751 1316.93,-452.846 1448,-347 1460.19,-337.159 1475.45,-330.045 1490.15,-324.953"/>
<polygon fill="#333333" stroke="#333333" points="1491.24,-328.279 1499.7,-321.891 1489.1,-321.613 1491.24,-328.279"/>
</g>
<!-- nid&#45;1d&#45;out -->
<g id="node22" class="node"><title>nid&#45;1d&#45;out</title>
<polygon fill="none" stroke="green" points="545.68,-168.7 376.32,-168.7 376.32,-93.2997 545.68,-93.2997 545.68,-168.7"/>
<text text-anchor="middle" x="461" y="-150.6" font-family="Times,serif" font-size="14.00">29</text>
<text text-anchor="middle" x="461" y="-133.8" font-family="Times,serif" font-size="14.00">[N/A] Reserved at Ext N/A</text>
<text text-anchor="middle" x="461" y="-117" font-family="Times,serif" font-size="14.00">Mono</text>
<text text-anchor="middle" x="461" y="-100.2" font-family="Times,serif" font-size="14.00">IN</text>
</g>
<!-- nid&#45;1d&#45;out&#45;&gt;nid&#45;0b&#45;ampin&#45;29 -->
<g id="edge16" class="edge"><title>nid&#45;1d&#45;out&#45;&gt;nid&#45;0b&#45;ampin&#45;29</title>
<path fill="none" stroke="#333333" d="M531.52,-168.326C539.135,-172.55 546.75,-176.833 554,-181 643.421,-232.39 745.988,-295.615 803.577,-331.515"/>
<polygon fill="#333333" stroke="#333333" points="801.746,-334.498 812.083,-336.823 805.452,-328.56 801.746,-334.498"/>
</g>
<!-- nid&#45;22&#45;ampin&#45;29 -->
<g id="node45" class="node"><title>nid&#45;22&#45;ampin&#45;29</title>
<polygon fill="none" stroke="#c8c8c8" points="1632.1,-455 1499.95,-479.602 1499.95,-430.398 1632.1,-455"/>
<text text-anchor="middle" x="1544" y="-449.4" font-family="Times,serif" font-size="14.00">4 (29)</text>
</g>
<!-- nid&#45;1d&#45;out&#45;&gt;nid&#45;22&#45;ampin&#45;29 -->
<g id="edge48" class="edge"><title>nid&#45;1d&#45;out&#45;&gt;nid&#45;22&#45;ampin&#45;29</title>
<path fill="none" stroke="#333333" d="M545.71,-131.109C693.842,-134.225 1009.05,-154.133 1248,-261 1351.16,-307.137 1349.85,-362.001 1448,-418 1461.12,-425.483 1476.04,-432.087 1490.11,-437.568"/>
<polygon fill="#333333" stroke="#333333" points="1489.09,-440.924 1499.68,-441.18 1491.56,-434.375 1489.09,-440.924"/>
</g>
<!-- nid&#45;23&#45;ampin&#45;29 -->
<g id="node51" class="node"><title>nid&#45;23&#45;ampin&#45;29</title>
<polygon fill="none" stroke="#c8c8c8" points="1632.1,-41 1499.95,-65.6016 1499.95,-16.3984 1632.1,-41"/>
<text text-anchor="middle" x="1544" y="-35.4" font-family="Times,serif" font-size="14.00">4 (29)</text>
</g>
<!-- nid&#45;1d&#45;out&#45;&gt;nid&#45;23&#45;ampin&#45;29 -->
<g id="edge60" class="edge"><title>nid&#45;1d&#45;out&#45;&gt;nid&#45;23&#45;ampin&#45;29</title>
<path fill="none" stroke="#333333" d="M545.696,-123.763C604.071,-118.732 683.779,-111.899 754,-106 1030.76,-82.7527 1362.19,-55.7071 1489.55,-45.3436"/>
<polygon fill="#333333" stroke="#333333" points="1490.12,-48.809 1499.8,-44.5096 1489.55,-41.832 1490.12,-48.809"/>
</g>
<!-- nid&#45;0c -->
<g id="node23" class="node"><title>nid&#45;0c</title>
<polygon fill="none" stroke="black" points="1933.03,-1024 1912.02,-1057.93 1869.98,-1057.93 1848.97,-1024 1869.98,-990.067 1912.02,-990.067 1933.03,-1024"/>
<text text-anchor="middle" x="1891" y="-1026.8" font-family="Times,serif" font-size="14.00">12</text>
<text text-anchor="middle" x="1891" y="-1010" font-family="Times,serif" font-size="14.00">Stereo</text>
</g>
<!-- nid&#45;14&#45;in -->
<g id="node34" class="node"><title>nid&#45;14&#45;in</title>
<polygon fill="none" stroke="green" points="2321.07,-1161.7 2154.93,-1161.7 2154.93,-1086.3 2321.07,-1086.3 2321.07,-1161.7"/>
<text text-anchor="middle" x="2238" y="-1143.6" font-family="Times,serif" font-size="14.00">20</text>
<text text-anchor="middle" x="2238" y="-1126.8" font-family="Times,serif" font-size="14.00">[Fixed] Speaker at Int N/A</text>
<text text-anchor="middle" x="2238" y="-1110" font-family="Times,serif" font-size="14.00">Stereo</text>
<text text-anchor="middle" x="2238" y="-1093.2" font-family="Times,serif" font-size="14.00">OUT EAPD Detect</text>
</g>
<!-- nid&#45;0c&#45;&gt;nid&#45;14&#45;in -->
<g id="edge29" class="edge"><title>nid&#45;0c&#45;&gt;nid&#45;14&#45;in</title>
<path fill="none" stroke="#333333" d="M1926.98,-1034.14C1977.62,-1048.82 2073.12,-1076.5 2144.81,-1097.28"/>
<polygon fill="#333333" stroke="#333333" points="2144.18,-1100.74 2154.76,-1100.16 2146.12,-1094.02 2144.18,-1100.74"/>
</g>
<!-- nid&#45;1b&#45;in -->
<g id="node36" class="node"><title>nid&#45;1b&#45;in</title>
<polygon fill="none" stroke="green" points="2320.5,-1061.7 2155.5,-1061.7 2155.5,-986.3 2320.5,-986.3 2320.5,-1061.7"/>
<text text-anchor="middle" x="2238" y="-1043.6" font-family="Times,serif" font-size="14.00">27</text>
<text text-anchor="middle" x="2238" y="-1026.8" font-family="Times,serif" font-size="14.00">[N/A] Speaker at Ext Rear</text>
<text text-anchor="middle" x="2238" y="-1010" font-family="Times,serif" font-size="14.00">Stereo</text>
<text text-anchor="middle" x="2238" y="-993.2" font-family="Times,serif" font-size="14.00">IN OUT HP Detect</text>
</g>
<!-- nid&#45;0c&#45;&gt;nid&#45;1b&#45;in -->
<g id="edge33" class="edge"><title>nid&#45;0c&#45;&gt;nid&#45;1b&#45;in</title>
<path fill="none" stroke="#333333" d="M1933.27,-1024C1985.33,-1024 2076.35,-1024 2145.22,-1024"/>
<polygon fill="#333333" stroke="#333333" points="2145.64,-1027.5 2155.64,-1024 2145.64,-1020.5 2145.64,-1027.5"/>
</g>
<!-- nid&#45;21&#45;in -->
<g id="node40" class="node"><title>nid&#45;21&#45;in</title>
<polygon fill="none" stroke="green" points="2317.45,-961.7 2158.55,-961.7 2158.55,-886.3 2317.45,-886.3 2317.45,-961.7"/>
<text text-anchor="middle" x="2238" y="-943.6" font-family="Times,serif" font-size="14.00">33</text>
<text text-anchor="middle" x="2238" y="-926.8" font-family="Times,serif" font-size="14.00">[Jack] HP Out at Ext Left</text>
<text text-anchor="middle" x="2238" y="-910" font-family="Times,serif" font-size="14.00">Stereo</text>
<text text-anchor="middle" x="2238" y="-893.2" font-family="Times,serif" font-size="14.00">OUT HP Detect</text>
</g>
<!-- nid&#45;0c&#45;&gt;nid&#45;21&#45;in -->
<g id="edge36" class="edge"><title>nid&#45;0c&#45;&gt;nid&#45;21&#45;in</title>
<path fill="none" stroke="gray" stroke-dasharray="5,2" d="M1926.98,-1013.86C1978.43,-998.946 2076.22,-970.604 2148.26,-949.722"/>
<polygon fill="gray" stroke="gray" points="2149.62,-952.972 2158.25,-946.827 2147.67,-946.249 2149.62,-952.972"/>
</g>
<!-- nid&#45;0c&#45;ampin&#45;2&#45;&gt;nid&#45;0c -->
<g id="edge17" class="edge"><title>nid&#45;0c&#45;ampin&#45;2&#45;&gt;nid&#45;0c</title>
<path fill="none" stroke="#0000ff" d="M1591.89,-1071.53C1659.31,-1060.78 1782.66,-1041.11 1847.53,-1030.77"/>
<polygon fill="#0000ff" stroke="#0000ff" points="1847.82,-1032.5 1852.48,-1029.98 1847.27,-1029.04 1847.82,-1032.5"/>
</g>
<!-- nid&#45;0c&#45;ampin&#45;11&#45;&gt;nid&#45;0c -->
<g id="edge18" class="edge"><title>nid&#45;0c&#45;ampin&#45;11&#45;&gt;nid&#45;0c</title>
<path fill="none" stroke="#0000ff" d="M1617.32,-1013.73C1685.8,-1016.31 1786.49,-1020.1 1844.43,-1022.28"/>
<polygon fill="#0000ff" stroke="#0000ff" points="1844.49,-1024.04 1849.55,-1022.48 1844.62,-1020.54 1844.49,-1024.04"/>
</g>
<!-- nid&#45;0d -->
<g id="node26" class="node"><title>nid&#45;0d</title>
<polygon fill="none" stroke="black" points="1933.03,-924 1912.02,-957.933 1869.98,-957.933 1848.97,-924 1869.98,-890.067 1912.02,-890.067 1933.03,-924"/>
<text text-anchor="middle" x="1891" y="-926.8" font-family="Times,serif" font-size="14.00">13</text>
<text text-anchor="middle" x="1891" y="-910" font-family="Times,serif" font-size="14.00">Stereo</text>
</g>
<!-- nid&#45;0f&#45;ampin&#45;13 -->
<g id="node30" class="node"><title>nid&#45;0f&#45;ampin&#45;13</title>
<polygon fill="none" stroke="#0000ff" points="2326.1,-828 2193.95,-852.602 2193.95,-803.398 2326.1,-828"/>
<text text-anchor="middle" x="2238" y="-822.4" font-family="Times,serif" font-size="14.00">0 (13)</text>
</g>
<!-- nid&#45;0d&#45;&gt;nid&#45;0f&#45;ampin&#45;13 -->
<g id="edge26" class="edge"><title>nid&#45;0d&#45;&gt;nid&#45;0f&#45;ampin&#45;13</title>
<path fill="none" stroke="#333333" d="M1926.98,-914.267C1987.68,-897.376 2112.85,-862.547 2184.18,-842.698"/>
<polygon fill="#333333" stroke="#333333" points="2185.18,-846.053 2193.87,-840 2183.3,-839.309 2185.18,-846.053"/>
</g>
<!-- nid&#45;0d&#45;&gt;nid&#45;1b&#45;in -->
<g id="edge34" class="edge"><title>nid&#45;0d&#45;&gt;nid&#45;1b&#45;in</title>
<path fill="none" stroke="gray" stroke-dasharray="5,2" d="M1926.98,-934.139C1977.78,-948.864 2073.74,-976.678 2145.5,-997.478"/>
<polygon fill="gray" stroke="gray" points="2144.88,-1000.94 2155.46,-1000.36 2146.83,-994.219 2144.88,-1000.94"/>
</g>
<!-- nid&#45;0d&#45;&gt;nid&#45;21&#45;in -->
<g id="edge37" class="edge"><title>nid&#45;0d&#45;&gt;nid&#45;21&#45;in</title>
<path fill="none" stroke="#333333" d="M1933.27,-924C1986.12,-924 2079.12,-924 2148.33,-924"/>
<polygon fill="#333333" stroke="#333333" points="2148.37,-927.5 2158.37,-924 2148.37,-920.5 2148.37,-927.5"/>
</g>
<!-- nid&#45;0d&#45;ampin&#45;3&#45;&gt;nid&#45;0d -->
<g id="edge21" class="edge"><title>nid&#45;0d&#45;ampin&#45;3&#45;&gt;nid&#45;0d</title>
<path fill="none" stroke="#0000ff" d="M1617.32,-934.275C1685.8,-931.695 1786.49,-927.9 1844.43,-925.717"/>
<polygon fill="#0000ff" stroke="#0000ff" points="1844.62,-927.461 1849.55,-925.524 1844.49,-923.964 1844.62,-927.461"/>
</g>
<!-- nid&#45;0d&#45;ampin&#45;11&#45;&gt;nid&#45;0d -->
<g id="edge22" class="edge"><title>nid&#45;0d&#45;ampin&#45;11&#45;&gt;nid&#45;0d</title>
<path fill="none" stroke="#0000ff" d="M1591.89,-876.475C1659.31,-887.224 1782.66,-906.887 1847.53,-917.23"/>
<polygon fill="#0000ff" stroke="#0000ff" points="1847.27,-918.96 1852.48,-918.019 1847.82,-915.504 1847.27,-918.96"/>
</g>
<!-- nid&#45;0f -->
<g id="node29" class="node"><title>nid&#45;0f</title>
<polygon fill="none" stroke="black" points="2623.25,-828 2603.12,-861.933 2562.88,-861.933 2542.75,-828 2562.88,-794.067 2603.12,-794.067 2623.25,-828"/>
<text text-anchor="middle" x="2583" y="-830.8" font-family="Times,serif" font-size="14.00">15</text>
<text text-anchor="middle" x="2583" y="-814" font-family="Times,serif" font-size="14.00">Mono</text>
</g>
<!-- nid&#45;17&#45;in -->
<g id="node35" class="node"><title>nid&#45;17&#45;in</title>
<polygon fill="none" stroke="green" points="3007.75,-865.7 2840.25,-865.7 2840.25,-790.3 3007.75,-790.3 3007.75,-865.7"/>
<text text-anchor="middle" x="2924" y="-847.6" font-family="Times,serif" font-size="14.00">23</text>
<text text-anchor="middle" x="2924" y="-830.8" font-family="Times,serif" font-size="14.00">[N/A] Line Out at Ext N/A</text>
<text text-anchor="middle" x="2924" y="-814" font-family="Times,serif" font-size="14.00">Mono</text>
<text text-anchor="middle" x="2924" y="-797.2" font-family="Times,serif" font-size="14.00">OUT</text>
</g>
<!-- nid&#45;0f&#45;&gt;nid&#45;17&#45;in -->
<g id="edge30" class="edge"><title>nid&#45;0f&#45;&gt;nid&#45;17&#45;in</title>
<path fill="none" stroke="#333333" d="M2623.55,-828C2673.81,-828 2762.15,-828 2829.9,-828"/>
<polygon fill="#333333" stroke="#333333" points="2830.16,-831.5 2840.16,-828 2830.16,-824.5 2830.16,-831.5"/>
</g>
<!-- nid&#45;0f&#45;ampin&#45;13&#45;&gt;nid&#45;0f -->
<g id="edge25" class="edge"><title>nid&#45;0f&#45;ampin&#45;13&#45;&gt;nid&#45;0f</title>
<path fill="none" stroke="#0000ff" d="M2326.44,-828C2393.93,-828 2484.49,-828 2537.72,-828"/>
<polygon fill="#0000ff" stroke="#0000ff" points="2537.75,-829.75 2542.75,-828 2537.75,-826.25 2537.75,-829.75"/>
</g>
<!-- nid&#45;11 -->
<g id="node31" class="node"><title>nid&#45;11</title>
<ellipse fill="none" stroke="red" cx="850" cy="-1161" rx="36.7079" ry="29.3315"/>
<text text-anchor="middle" x="850" y="-1163.8" font-family="Times,serif" font-size="14.00">17</text>
<text text-anchor="middle" x="850" y="-1147" font-family="Times,serif" font-size="14.00">Stereo</text>
</g>
<!-- nid&#45;11&#45;ampin -->
<g id="node32" class="node"><title>nid&#45;11&#45;ampin</title>
<polygon fill="none" stroke="#3232f1" points="488,-1161 447.5,-1179 447.5,-1143 488,-1161"/>
</g>
<!-- nid&#45;11&#45;ampin&#45;&gt;nid&#45;11 -->
<g id="edge27" class="edge"><title>nid&#45;11&#45;ampin&#45;&gt;nid&#45;11</title>
<path fill="none" stroke="#3232f1" d="M488.296,-1161C554.55,-1161 728.708,-1161 808.284,-1161"/>
<polygon fill="#3232f1" stroke="#3232f1" points="808.387,-1162.75 813.387,-1161 808.387,-1159.25 808.387,-1162.75"/>
</g>
<!-- nid&#45;12&#45;out -->
<g id="node33" class="node"><title>nid&#45;12&#45;out</title>
<polygon fill="none" stroke="green" points="159.532,-1198.7 16.468,-1198.7 16.468,-1123.3 159.532,-1123.3 159.532,-1198.7"/>
<text text-anchor="middle" x="88" y="-1180.6" font-family="Times,serif" font-size="14.00">18</text>
<text text-anchor="middle" x="88" y="-1163.8" font-family="Times,serif" font-size="14.00">[Fixed] Mic at Int N/A</text>
<text text-anchor="middle" x="88" y="-1147" font-family="Times,serif" font-size="14.00">Stereo</text>
<text text-anchor="middle" x="88" y="-1130.2" font-family="Times,serif" font-size="14.00">IN</text>
</g>
<!-- nid&#45;12&#45;out&#45;&gt;nid&#45;11&#45;ampin -->
<g id="edge28" class="edge"><title>nid&#45;12&#45;out&#45;&gt;nid&#45;11&#45;ampin</title>
<path fill="none" stroke="#333333" d="M159.656,-1161C244.644,-1161 382.656,-1161 436.984,-1161"/>
<polygon fill="#333333" stroke="#333333" points="437.257,-1164.5 447.257,-1161 437.257,-1157.5 437.257,-1164.5"/>
</g>
<!-- nid&#45;1b&#45;ampout -->
<g id="node37" class="node"><title>nid&#45;1b&#45;ampout</title>
<polygon fill="none" stroke="#c8c8c8" points="2610,-1024 2569.5,-1042 2569.5,-1006 2610,-1024"/>
</g>
<!-- nid&#45;1b&#45;in&#45;&gt;nid&#45;1b&#45;ampout -->
<g id="edge31" class="edge"><title>nid&#45;1b&#45;in&#45;&gt;nid&#45;1b&#45;ampout</title>
<path fill="none" stroke="#c8c8c8" d="M2320.29,-1024C2401.38,-1024 2520.1,-1024 2564.44,-1024"/>
<polygon fill="#c8c8c8" stroke="#c8c8c8" points="2564.47,-1025.75 2569.47,-1024 2564.47,-1022.25 2564.47,-1025.75"/>
</g>
<!-- nid&#45;1b&#45;ampin -->
<g id="node38" class="node"><title>nid&#45;1b&#45;ampin</title>
<polygon fill="none" stroke="#0000ff" points="115,-673 74.5,-691 74.5,-655 115,-673"/>
</g>
<!-- nid&#45;1b&#45;ampin&#45;&gt;nid&#45;1b&#45;out -->
<g id="edge32" class="edge"><title>nid&#45;1b&#45;ampin&#45;&gt;nid&#45;1b&#45;out</title>
<path fill="none" stroke="#0000ff" d="M115.088,-673C167.916,-673 289.627,-673 373.365,-673"/>
<polygon fill="#0000ff" stroke="#0000ff" points="373.574,-674.75 378.574,-673 373.573,-671.25 373.574,-674.75"/>
</g>
<!-- nid&#45;22&#45;ampin&#45;24&#45;&gt;nid&#45;22 -->
<g id="edge38" class="edge"><title>nid&#45;22&#45;ampin&#45;24&#45;&gt;nid&#45;22</title>
<path fill="none" stroke="#c8c8c8" d="M1578.39,-532.873C1642.39,-551.792 1782,-593.071 1850.5,-613.323"/>
<polygon fill="#c8c8c8" stroke="#c8c8c8" points="1850.02,-615.004 1855.31,-614.744 1851.01,-611.648 1850.02,-615.004"/>
</g>
<!-- nid&#45;22&#45;ampin&#45;25&#45;&gt;nid&#45;22 -->
<g id="edge39" class="edge"><title>nid&#45;22&#45;ampin&#45;25&#45;&gt;nid&#45;22</title>
<path fill="none" stroke="#c8c8c8" d="M1601.97,-596.614C1670.47,-603.366 1783.97,-614.55 1846.07,-620.67"/>
<polygon fill="#c8c8c8" stroke="#c8c8c8" points="1846.03,-622.425 1851.18,-621.174 1846.37,-618.942 1846.03,-622.425"/>
</g>
<!-- nid&#45;22&#45;ampin&#45;26&#45;&gt;nid&#45;22 -->
<g id="edge40" class="edge"><title>nid&#45;22&#45;ampin&#45;26&#45;&gt;nid&#45;22</title>
<path fill="none" stroke="#c8c8c8" d="M1573.91,-784.201C1590.99,-777.617 1612.93,-768.799 1632,-760 1713.38,-722.454 1805.77,-672.168 1854.9,-644.794"/>
<polygon fill="#c8c8c8" stroke="#c8c8c8" points="1856.01,-646.182 1859.52,-642.217 1854.3,-643.125 1856.01,-646.182"/>
</g>
<!-- nid&#45;22&#45;ampin&#45;27&#45;&gt;nid&#45;22 -->
<g id="edge41" class="edge"><title>nid&#45;22&#45;ampin&#45;27&#45;&gt;nid&#45;22</title>
<path fill="none" stroke="#c8c8c8" d="M1578.39,-717.127C1642.39,-698.208 1782,-656.929 1850.5,-636.677"/>
<polygon fill="#c8c8c8" stroke="#c8c8c8" points="1851.01,-638.352 1855.31,-635.256 1850.02,-634.996 1851.01,-638.352"/>
</g>
<!-- nid&#45;22&#45;ampin&#45;29&#45;&gt;nid&#45;22 -->
<g id="edge42" class="edge"><title>nid&#45;22&#45;ampin&#45;29&#45;&gt;nid&#45;22</title>
<path fill="none" stroke="#c8c8c8" d="M1574.74,-465.676C1591.71,-472.002 1613.27,-480.436 1632,-489 1713.64,-526.325 1805.93,-577.175 1854.98,-604.918"/>
<polygon fill="#c8c8c8" stroke="#c8c8c8" points="1854.37,-606.587 1859.58,-607.53 1856.1,-603.542 1854.37,-606.587"/>
</g>
<!-- nid&#45;22&#45;ampin&#45;11&#45;&gt;nid&#45;22 -->
<g id="edge43" class="edge"><title>nid&#45;22&#45;ampin&#45;11&#45;&gt;nid&#45;22</title>
<path fill="none" stroke="#c8c8c8" d="M1601.97,-653.386C1670.47,-646.634 1783.97,-635.45 1846.07,-629.33"/>
<polygon fill="#c8c8c8" stroke="#c8c8c8" points="1846.37,-631.058 1851.18,-628.826 1846.03,-627.575 1846.37,-631.058"/>
</g>
<!-- nid&#45;23&#45;ampin&#45;24&#45;&gt;nid&#45;23 -->
<g id="edge50" class="edge"><title>nid&#45;23&#45;ampin&#45;24&#45;&gt;nid&#45;23</title>
<path fill="none" stroke="#c8c8c8" d="M1578.39,-118.873C1642.39,-137.792 1782,-179.071 1850.5,-199.323"/>
<polygon fill="#c8c8c8" stroke="#c8c8c8" points="1850.02,-201.004 1855.31,-200.744 1851.01,-197.648 1850.02,-201.004"/>
</g>
<!-- nid&#45;23&#45;ampin&#45;25&#45;&gt;nid&#45;23 -->
<g id="edge51" class="edge"><title>nid&#45;23&#45;ampin&#45;25&#45;&gt;nid&#45;23</title>
<path fill="none" stroke="#c8c8c8" d="M1601.97,-182.614C1670.47,-189.366 1783.97,-200.55 1846.07,-206.67"/>
<polygon fill="#c8c8c8" stroke="#c8c8c8" points="1846.03,-208.425 1851.18,-207.174 1846.37,-204.942 1846.03,-208.425"/>
</g>
<!-- nid&#45;23&#45;ampin&#45;26&#45;&gt;nid&#45;23 -->
<g id="edge52" class="edge"><title>nid&#45;23&#45;ampin&#45;26&#45;&gt;nid&#45;23</title>
<path fill="none" stroke="#c8c8c8" d="M1573.91,-370.201C1590.99,-363.617 1612.93,-354.799 1632,-346 1713.38,-308.454 1805.77,-258.168 1854.9,-230.794"/>
<polygon fill="#c8c8c8" stroke="#c8c8c8" points="1856.01,-232.182 1859.52,-228.217 1854.3,-229.125 1856.01,-232.182"/>
</g>
<!-- nid&#45;23&#45;ampin&#45;27&#45;&gt;nid&#45;23 -->
<g id="edge53" class="edge"><title>nid&#45;23&#45;ampin&#45;27&#45;&gt;nid&#45;23</title>
<path fill="none" stroke="#c8c8c8" d="M1578.39,-303.127C1642.39,-284.208 1782,-242.929 1850.5,-222.677"/>
<polygon fill="#c8c8c8" stroke="#c8c8c8" points="1851.01,-224.352 1855.31,-221.256 1850.02,-220.996 1851.01,-224.352"/>
</g>
<!-- nid&#45;23&#45;ampin&#45;29&#45;&gt;nid&#45;23 -->
<g id="edge54" class="edge"><title>nid&#45;23&#45;ampin&#45;29&#45;&gt;nid&#45;23</title>
<path fill="none" stroke="#c8c8c8" d="M1574.74,-51.6757C1591.71,-58.0017 1613.27,-66.4363 1632,-75 1713.64,-112.325 1805.93,-163.175 1854.98,-190.918"/>
<polygon fill="#c8c8c8" stroke="#c8c8c8" points="1854.37,-192.587 1859.58,-193.53 1856.1,-189.542 1854.37,-192.587"/>
</g>
<!-- nid&#45;23&#45;ampin&#45;11&#45;&gt;nid&#45;23 -->
<g id="edge55" class="edge"><title>nid&#45;23&#45;ampin&#45;11&#45;&gt;nid&#45;23</title>
<path fill="none" stroke="#c8c8c8" d="M1601.97,-239.386C1670.47,-232.634 1783.97,-221.45 1846.07,-215.33"/>
<polygon fill="#c8c8c8" stroke="#c8c8c8" points="1846.37,-217.058 1851.18,-214.826 1846.03,-213.575 1846.37,-217.058"/>
</g>
</g>
</svg>
